<svg width="1192" height="539" xmlns="http://www.w3.org/2000/svg" xmlns:xlink="http://www.w3.org/1999/xlink" overflow="hidden"><defs><clipPath id="clip0"><rect x="44" y="165" width="1192" height="539"/></clipPath></defs><g clip-path="url(#clip0)" transform="translate(-44 -165)"><path d="M527.5 474C527.5 411.316 578.092 360.5 640.5 360.5 702.908 360.5 753.5 411.316 753.5 474 753.5 536.684 702.908 587.5 640.5 587.5 578.092 587.5 527.5 536.684 527.5 474Z" stroke="#000000" stroke-width="1.33333" stroke-miterlimit="8" fill="#FFFFFF" fill-rule="evenodd"/><text font-family="DengXian,DengXian_MSFontService,sans-serif" font-weight="400" font-size="24" transform="translate(587.25 481)">RabbitMQ</text><path d="M559.25 564.5 559.25 408 546.5 408 572 382.5 597.5 408 584.75 408 584.75 564.5Z" stroke="#000000" stroke-width="1.33333" stroke-miterlimit="8" fill="#FFFFFF" fill-rule="evenodd"/><text font-family="DengXian,DengXian_MSFontService,sans-serif" font-weight="400" font-size="21" transform="matrix(-1.83697e-16 -1 1 -1.83697e-16 578.311 544)">计算请求队列</text><path d="M721.75 382.5 721.75 539 734.5 539 709 564.5 683.5 539 696.25 539 696.25 382.5Z" stroke="#000000" stroke-width="1.33333" stroke-miterlimit="8" fill="#FFFFFF" fill-rule="evenodd"/><text font-family="DengXian,DengXian_MSFontService,sans-serif" font-weight="400" font-size="21" transform="matrix(6.12323e-17 1 -1 6.12323e-17 701.689 403)">计算结果队列</text><path d="M467.5 625C467.5 616.44 474.44 609.5 483 609.5L798 609.5C806.56 609.5 813.5 616.44 813.5 625L813.5 687C813.5 695.56 806.56 702.5 798 702.5L483 702.5C474.44 702.5 467.5 695.56 467.5 687Z" stroke="#000000" stroke-width="1.33333" stroke-miterlimit="8" fill="#FFFFFF" fill-rule="evenodd"/><text font-family="DengXian,DengXian_MSFontService,sans-serif" font-weight="400" font-size="24" transform="translate(604 663)">传输层</text><path d="M391.5 182.167C391.5 173.514 398.514 166.5 407.167 166.5L528.833 166.5C537.486 166.5 544.5 173.514 544.5 182.167L544.5 244.833C544.5 253.486 537.486 260.5 528.833 260.5L407.167 260.5C398.514 260.5 391.5 253.486 391.5 244.833Z" stroke="#000000" stroke-width="1.33333" stroke-miterlimit="8" fill="#FFFFFF" fill-rule="evenodd"/><text font-family="DengXian,DengXian_MSFontService,sans-serif" font-weight="400" font-size="24" transform="translate(431.444 221)">计算层</text><path d="M563.5 183.167C563.5 174.514 570.514 167.5 579.167 167.5L701.833 167.5C710.486 167.5 717.5 174.514 717.5 183.167L717.5 245.833C717.5 254.486 710.486 261.5 701.833 261.5L579.167 261.5C570.514 261.5 563.5 254.486 563.5 245.833Z" stroke="#000000" stroke-width="1.33333" stroke-miterlimit="8" fill="#FFFFFF" fill-rule="evenodd"/><text font-family="DengXian,DengXian_MSFontService,sans-serif" font-weight="400" font-size="24" transform="translate(604 222)">计算层</text><path d="M736.5 182.167C736.5 173.514 743.514 166.5 752.167 166.5L873.833 166.5C882.486 166.5 889.5 173.514 889.5 182.167L889.5 244.833C889.5 253.486 882.486 260.5 873.833 260.5L752.167 260.5C743.514 260.5 736.5 253.486 736.5 244.833Z" stroke="#000000" stroke-width="1.33333" stroke-miterlimit="8" fill="#FFFFFF" fill-rule="evenodd"/><text font-family="DengXian,DengXian_MSFontService,sans-serif" font-weight="400" font-size="24" transform="translate(776.556 221)">计算层</text><path d="M570.658 383.644 471.293 266.023 472.312 265.163 571.676 382.784ZM469.607 269.193 467.5 260.5 475.718 264.03Z" fill="#5B9BD5"/><path d="M467.802 259.906 703.304 379.6 702.7 380.788 467.198 261.094ZM703.625 376.024 708.945 383.214 700.001 383.155Z" fill="#70AD47"/><path d="M641.08 261.172 706.684 377.034 705.524 377.691 639.92 261.829ZM708.928 374.231 709.389 383.164 701.967 378.173Z" fill="#70AD47"/><path d="M0.580125-0.32848 66.1841 115.534 65.0239 116.191-0.580125 0.32848ZM68.4278 112.731 68.8888 121.664 61.4663 116.673Z" fill="#5B9BD5" transform="matrix(1 0 0 -1 571.5 383.164)"/><path d="M0.302059-0.59431 235.803 119.099 235.199 120.288-0.302059 0.59431ZM236.125 115.524 241.444 122.714 232.5 122.655Z" fill="#5B9BD5" transform="matrix(1 0 0 -1 571.5 383.214)"/><path d="M908.5 183.167C908.5 174.514 915.514 167.5 924.167 167.5L1046.83 167.5C1055.49 167.5 1062.5 174.514 1062.5 183.167L1062.5 245.833C1062.5 254.486 1055.49 261.5 1046.83 261.5L924.167 261.5C915.514 261.5 908.5 254.486 908.5 245.833Z" stroke="#000000" stroke-width="1.33333" stroke-miterlimit="8" fill="#FFFFFF" fill-rule="evenodd"/><text font-family="DengXian,DengXian_MSFontService,sans-serif" font-weight="400" font-size="24" transform="translate(949.111 222)">计算层</text><path d="M1081.5 182.167C1081.5 173.514 1088.51 166.5 1097.17 166.5L1218.83 166.5C1227.49 166.5 1234.5 173.514 1234.5 182.167L1234.5 244.833C1234.5 253.486 1227.49 260.5 1218.83 260.5L1097.17 260.5C1088.51 260.5 1081.5 253.486 1081.5 244.833Z" stroke="#000000" stroke-width="1.33333" stroke-miterlimit="8" fill="#FFFFFF" fill-rule="evenodd"/><text font-family="DengXian,DengXian_MSFontService,sans-serif" font-weight="400" font-size="24" transform="translate(1121.67 221)">计算层</text><path d="M46.5001 184.167C46.5001 175.514 53.5144 168.5 62.167 168.5L183.833 168.5C192.486 168.5 199.5 175.514 199.5 184.167L199.5 246.833C199.5 255.486 192.486 262.5 183.833 262.5L62.167 262.5C53.5144 262.5 46.5001 255.486 46.5001 246.833Z" stroke="#000000" stroke-width="1.33333" stroke-miterlimit="8" fill="#FFFFFF" fill-rule="evenodd"/><text font-family="DengXian,DengXian_MSFontService,sans-serif" font-weight="400" font-size="24" transform="translate(86.3332 223)">计算层</text><path d="M218.5 183.167C218.5 174.514 225.514 167.5 234.167 167.5L356.833 167.5C365.486 167.5 372.5 174.514 372.5 183.167L372.5 245.833C372.5 254.486 365.486 261.5 356.833 261.5L234.167 261.5C225.514 261.5 218.5 254.486 218.5 245.833Z" stroke="#000000" stroke-width="1.33333" stroke-miterlimit="8" fill="#FFFFFF" fill-rule="evenodd"/><text font-family="DengXian,DengXian_MSFontService,sans-serif" font-weight="400" font-size="24" transform="translate(258.889 222)">计算层</text><path d="M0.187967-0.639619 407.79 119.144 407.414 120.423-0.187967 0.639619ZM407.452 115.57 414 121.664 405.197 123.246Z" fill="#5B9BD5" transform="matrix(1 0 0 -1 571.5 383.164)"/><path d="M0.136519-0.652539 580.163 120.696 579.89 122.001-0.136519 0.652539ZM579.544 117.161 586.556 122.714 577.906 124.991Z" fill="#5B9BD5" transform="matrix(1 0 0 -1 571.5 383.214)"/><path d="M295.688 260.86 703.292 380.644 702.916 381.924 295.312 262.14ZM702.953 377.07 709.5 383.164 700.697 384.746Z" fill="#70AD47"/><path d="M122.634 261.847 702.659 381.117 702.39 382.423 122.366 263.153ZM702.025 377.584 709.056 383.113 700.414 385.42Z" fill="#70AD47"/><path d="M571.454 383.774 301.332 264.797 301.87 263.577 571.991 382.554ZM301.209 268.385 295.5 261.5 304.434 261.064Z" fill="#5B9BD5"/><path d="M571.105 383.757 128.768 264.875 129.114 263.587 571.451 382.469ZM129.188 268.439 122.5 262.5 131.264 260.714Z" fill="#5B9BD5"/><path d="M0.509269-0.43022 99.8736 117.191 98.8551 118.052-0.509269 0.43022ZM101.56 114.022 103.667 122.714 95.4483 119.184Z" fill="#70AD47" transform="matrix(-1 0 0 1 813.167 260.5)"/><path d="M0.268725-0.610107 270.389 118.366 269.852 119.586-0.268725 0.610107ZM270.513 114.778 276.222 121.664 267.288 122.1Z" fill="#70AD47" transform="matrix(-1 0 0 1 985.722 261.5)"/><path d="M0.175839-0.643059 442.523 120.313 442.171 121.599-0.175839 0.643059ZM442.116 116.746 448.778 122.714 440.006 124.463Z" fill="#70AD47" transform="matrix(-1 0 0 1 1158.28 260.5)"/><path d="M0.666667-1.5711e-06 0.666756 37.8826-0.666577 37.8826-0.666667 1.5711e-06ZM4.00009 36.5493 0.000104987 44.5493-3.99991 36.5493Z" fill="#5B9BD5" transform="matrix(1 0 0 -1 571.5 609.049)"/><path d="M710.167 564.5 710.167 602.383 708.833 602.383 708.833 564.5ZM713.5 601.049 709.5 609.049 705.5 601.049Z" fill="#70AD47"/></g></svg>