<svg width="1197" height="383" xmlns="http://www.w3.org/2000/svg" xmlns:xlink="http://www.w3.org/1999/xlink" overflow="hidden"><defs><clipPath id="clip0"><rect x="34" y="278" width="1197" height="383"/></clipPath></defs><g clip-path="url(#clip0)" transform="translate(-34 -278)"><rect x="210.5" y="280.5" width="195" height="330" stroke="#000000" stroke-width="1.33333" stroke-miterlimit="8" fill="#FFFFFF"/><text font-family="DengXian,DengXian_MSFontService,sans-serif" font-weight="400" font-size="24" transform="translate(229.444 438)">神经网络分块<tspan x="144" y="0">1</tspan><tspan x="30.3333" y="29">计算</tspan>单元</text><rect x="485.5" y="280.5" width="195" height="330" stroke="#000000" stroke-width="1.33333" stroke-miterlimit="8" fill="#FFFFFF"/><text font-family="DengXian,DengXian_MSFontService,sans-serif" font-weight="400" font-size="24" transform="translate(504.111 438)">神经网络分块<tspan x="144" y="0">2</tspan><tspan x="30.3333" y="29">计算</tspan>单元</text><rect x="760.5" y="280.5" width="195" height="330" stroke="#000000" stroke-width="1.33333" stroke-miterlimit="8" fill="#FFFFFF"/><text font-family="DengXian,DengXian_MSFontService,sans-serif" font-weight="400" font-size="24" transform="translate(778.778 438)">神经网络分块3<tspan x="30.3333" y="29">计算</tspan>单元</text><rect x="1034.5" y="280.5" width="195" height="330" stroke="#000000" stroke-width="1.33333" stroke-miterlimit="8" fill="#FFFFFF"/><text font-family="DengXian,DengXian_MSFontService,sans-serif" font-weight="400" font-size="24" transform="translate(1053.44 438)">神经网络分块4<tspan x="30.3334" y="29">计算</tspan>单元</text><rect x="35.5001" y="452.5" width="95" height="208" stroke="#000000" stroke-width="1.33333" stroke-miterlimit="8" fill="#FFFFFF"/><text font-family="DengXian,DengXian_MSFontService,sans-serif" font-weight="400" font-size="24" transform="translate(58.4396 564)">终端</text><path d="M405 529 477.889 529 477.889 531 405 531ZM476.555 526 484.555 530 476.555 534Z"/><path d="M0.00957773-0.999954 72.8987-0.30181 72.8795 1.6981-0.00957773 0.999954ZM71.5941-3.31444 79.5554 0.761995 71.5174 4.68519Z" transform="matrix(-1 0 0 1 484.555 583)"/><rect x="419.5" y="557.5" width="52" height="53" stroke="#000000" stroke-width="1.33333" stroke-miterlimit="8" fill="#FFFFFF"/><text font-family="DengXian,DengXian_MSFontService,sans-serif" font-weight="400" font-size="16" transform="translate(428.965 580)">计算<tspan x="0" y="19">结果</tspan></text><rect x="418.5" y="504.5" width="53" height="53" stroke="#000000" stroke-width="1.33333" stroke-miterlimit="8" fill="#FFFFFF"/><text font-family="DengXian,DengXian_MSFontService,sans-serif" font-weight="400" font-size="16" transform="translate(428.674 526)">计算<tspan x="0" y="19">请求</tspan></text><path d="M680 528 752.889 528 752.889 530 680 530ZM751.555 525 759.555 529 751.555 533Z"/><path d="M0.00957773-0.999954 72.8987-0.30181 72.8795 1.6981-0.00957773 0.999954ZM71.5941-3.31444 79.5554 0.761995 71.5174 4.68519Z" transform="matrix(-1 0 0 1 759.555 582)"/><rect x="693.5" y="557.5" width="53" height="53" stroke="#000000" stroke-width="1.33333" stroke-miterlimit="8" fill="#FFFFFF"/><text font-family="DengXian,DengXian_MSFontService,sans-serif" font-weight="400" font-size="16" transform="translate(703.632 579)">计算<tspan x="0" y="19">结果</tspan></text><rect x="693.5" y="503.5" width="53" height="53" stroke="#000000" stroke-width="1.33333" stroke-miterlimit="8" fill="#FFFFFF"/><text font-family="DengXian,DengXian_MSFontService,sans-serif" font-weight="400" font-size="16" transform="translate(703.341 526)">计算<tspan x="0" y="19">请求</tspan></text><path d="M955 528 1027.89 528 1027.89 530 955 530ZM1026.56 525 1034.56 529 1026.56 533Z"/><path d="M0.00957773-0.999954 72.8987-0.30181 72.8795 1.6981-0.00957773 0.999954ZM71.5941-3.31444 79.5554 0.761995 71.5174 4.68519Z" transform="matrix(-1 0 0 1 1034.56 582)"/><rect x="968.5" y="557.5" width="53" height="52" stroke="#000000" stroke-width="1.33333" stroke-miterlimit="8" fill="#FFFFFF"/><text font-family="DengXian,DengXian_MSFontService,sans-serif" font-weight="400" font-size="16" transform="translate(978.299 579)">计算<tspan x="0" y="19">结果</tspan></text><rect x="968.5" y="503.5" width="52" height="53" stroke="#000000" stroke-width="1.33333" stroke-miterlimit="8" fill="#FFFFFF"/><text font-family="DengXian,DengXian_MSFontService,sans-serif" font-weight="400" font-size="16" transform="translate(978.007 525)">计算<tspan x="0" y="19">请求</tspan></text><path d="M131 528 203.889 528 203.889 530 131 530ZM202.555 525 210.555 529 202.555 533Z"/><path d="M0.00957773-0.999954 72.8987-0.30181 72.8795 1.6981-0.00957773 0.999954ZM71.5941-3.31444 79.5554 0.761995 71.5174 4.68519Z" transform="matrix(-1 0 0 1 210.555 581)"/><rect x="144.5" y="556.5" width="53" height="53" stroke="#000000" stroke-width="1.33333" stroke-miterlimit="8" fill="#FFFFFF"/><text font-family="DengXian,DengXian_MSFontService,sans-serif" font-weight="400" font-size="16" transform="translate(154.299 578)">计算<tspan x="0" y="19">结果</tspan></text><rect x="144.5" y="502.5" width="52" height="53" stroke="#000000" stroke-width="1.33333" stroke-miterlimit="8" fill="#FFFFFF"/><text font-family="DengXian,DengXian_MSFontService,sans-serif" font-weight="400" font-size="16" transform="translate(154.007 525)">计算<tspan x="0" y="19">请求</tspan></text></g></svg>