<svg width="995" height="704" xmlns="http://www.w3.org/2000/svg" xmlns:xlink="http://www.w3.org/1999/xlink" overflow="hidden"><defs><clipPath id="clip0"><rect x="229" y="1" width="995" height="704"/></clipPath></defs><g clip-path="url(#clip0)" transform="translate(-229 -1)"><rect x="335.5" y="4.50005" width="464" height="699" stroke="#000000" stroke-width="1.33333" stroke-miterlimit="8" fill="#FFFFFF"/><text font-family="DengXian,DengXian_MSFontService,sans-serif" font-weight="400" font-size="24" transform="translate(519.111 31)">计算单元</text><path d="M395.5 533.001C395.5 515.603 409.603 501.5 427.001 501.5L709 501.5C726.397 501.5 740.5 515.603 740.5 533.001L740.5 659C740.5 676.397 726.397 690.5 709 690.5L427.001 690.5C409.603 690.5 395.5 676.397 395.5 659Z" stroke="#000000" stroke-width="1.33333" stroke-miterlimit="8" fill="#FFFFFF" fill-rule="evenodd"/><text font-family="DengXian,DengXian_MSFontService,sans-serif" font-weight="400" font-size="24" transform="translate(531.111 669)">传输层</text><path d="M454.5 373C454.5 310.316 505.092 259.5 567.5 259.5 629.908 259.5 680.5 310.316 680.5 373 680.5 435.684 629.908 486.5 567.5 486.5 505.092 486.5 454.5 435.684 454.5 373Z" stroke="#000000" stroke-width="1.33333" stroke-miterlimit="8" fill="#FFFFFF" fill-rule="evenodd"/><text font-family="DengXian,DengXian_MSFontService,sans-serif" font-weight="400" font-size="24" transform="translate(514.361 380)">RabbitMQ</text><path d="M486.25 464.5 486.25 307 473.5 307 499 281.5 524.5 307 511.75 307 511.75 464.5Z" stroke="#000000" stroke-width="1.33333" stroke-miterlimit="8" fill="#FFFFFF" fill-rule="evenodd"/><text font-family="DengXian,DengXian_MSFontService,sans-serif" font-weight="400" font-size="21" transform="matrix(-1.83697e-16 -1 1 -1.83697e-16 505.422 443)">计算请求队列</text><path d="M649 281.5 649 439.5 661.5 439.5 636.5 464.5 611.5 439.5 624 439.5 624 281.5Z" stroke="#000000" stroke-width="1.33333" stroke-miterlimit="8" fill="#FFFFFF" fill-rule="evenodd"/><text font-family="DengXian,DengXian_MSFontService,sans-serif" font-weight="400" font-size="21" transform="matrix(6.12323e-17 1 -1 6.12323e-17 628.8 302)">计算结果队列</text><path d="M448.5 75.0005C448.5 59.8124 460.812 47.5001 476 47.5001L659 47.5001C674.188 47.5001 686.5 59.8124 686.5 75.0005L686.5 185C686.5 200.188 674.188 212.5 659 212.5L476 212.5C460.812 212.5 448.5 200.188 448.5 185Z" stroke="#000000" stroke-width="1.33333" stroke-miterlimit="8" fill="#FFFFFF" fill-rule="evenodd"/><text font-family="DengXian,DengXian_MSFontService,sans-serif" font-weight="400" font-size="24" transform="translate(531.111 82)">计算层</text><path d="M516.5 147C516.5 118.557 539.334 95.5001 567.5 95.5001 595.667 95.5001 618.5 118.557 618.5 147 618.5 175.443 595.667 198.5 567.5 198.5 539.334 198.5 516.5 175.443 516.5 147Z" stroke="#000000" stroke-width="1.33333" stroke-miterlimit="8" fill="#FFFFFF" fill-rule="evenodd"/><text font-family="DengXian,DengXian_MSFontService,sans-serif" font-weight="400" font-size="16" transform="translate(541.028 126)">Pytorch<tspan font-size="21" x="4.74664" y="24">神经</tspan><tspan font-size="21" x="4.74664" y="50">网络</tspan></text><path d="M497 280.898 497 145 509.199 145 509.199 147 498 147 499 146 499 280.898ZM507.865 142 515.865 146 507.865 150Z"/><path d="M618 145 636.865 145 636.865 274.231 634.865 274.231 634.865 146 635.865 147 618 147ZM639.865 272.898 635.865 280.898 631.865 272.898Z"/><rect x="442.5" y="187.5" width="52" height="53" stroke="#000000" stroke-width="1.33333" stroke-miterlimit="8" fill="#FFFFFF"/><text font-family="DengXian,DengXian_MSFontService,sans-serif" font-weight="400" font-size="16" transform="translate(451.978 210)">计算<tspan x="0" y="19">请求</tspan></text><rect x="640.5" y="185.5" width="53" height="53" stroke="#000000" stroke-width="1.33333" stroke-miterlimit="8" fill="#FFFFFF"/><text font-family="DengXian,DengXian_MSFontService,sans-serif" font-weight="400" font-size="16" transform="translate(650.244 207)">计算<tspan x="0" y="19">结果</tspan><tspan fill="#C00000" x="-231.676" y="-109">一个一个依次</tspan><tspan fill="#C00000" x="-231.676" y="-90">计算请求队列</tspan><tspan fill="#C00000" x="-231.676" y="-71">中的计算请求</tspan><tspan fill="#C00000" x="-231.676" y="-51">并</tspan><tspan fill="#C00000" x="-215.676" y="-51">·</tspan><tspan fill="#C00000" x="-212.176" y="-51">返回结果</tspan></text><rect x="442.5" y="466.5" width="52" height="53" stroke="#000000" stroke-width="1.33333" stroke-miterlimit="8" fill="#FFFFFF"/><text font-family="DengXian,DengXian_MSFontService,sans-serif" font-weight="400" font-size="16" transform="translate(451.978 488)">计算<tspan x="0" y="19">请求</tspan></text><rect x="395.5" y="527.5" width="31" height="99" stroke="#000000" stroke-width="1.33333" stroke-miterlimit="8" fill="#FFFFFF"/><text font-family="DengXian,DengXian_MSFontService,sans-serif" font-weight="400" font-size="19" transform="matrix(6.12323e-17 1 -1 6.12323e-17 405.32 536)">gRPC</text><text font-family="DengXian,DengXian_MSFontService,sans-serif" font-weight="400" font-size="19" writing-mode="tb-rl" transform="translate(405.32 579)" x="5.49219" y="4.00781">接口</text><path d="M0-1 73.5365-1 73.5365 106.201 71.5365 106.201 71.5365 0 72.5365 1 0 1ZM76.5365 104.868 72.5365 112.868 68.5365 104.868Z" transform="matrix(1 0 0 -1 426 576.868)"/><path d="M564.5 565.5 636.5 526.5 708.5 565.5 636.5 604.5Z" stroke="#000000" stroke-width="1.33333" stroke-miterlimit="8" fill="#FFFFFF" fill-rule="evenodd"/><text font-family="DengXian,DengXian_MSFontService,sans-serif" font-weight="400" font-size="14" transform="translate(615 553)">需要请<tspan x="0" y="17">求下一</tspan><tspan x="0" y="34">分块？</tspan></text><rect x="639.5" y="466.5" width="53" height="53" stroke="#000000" stroke-width="1.33333" stroke-miterlimit="8" fill="#FFFFFF"/><text font-family="DengXian,DengXian_MSFontService,sans-serif" font-weight="400" font-size="16" transform="translate(649.62 488)">计算<tspan x="0" y="19">结果</tspan></text><path d="M1-1.67855e-06 1.00009 55.8795-0.999906 55.8795-1 1.67855e-06ZM4.00009 54.5461 0.000104987 62.5461-3.99991 54.5461Z" transform="matrix(-1 0 0 1 636 464)"/><rect x="231.5" y="583.5" width="53" height="53" stroke="#000000" stroke-width="1.33333" stroke-miterlimit="8" fill="#FFFFFF"/><text font-family="DengXian,DengXian_MSFontService,sans-serif" font-weight="400" font-size="16" transform="translate(241.069 606)">计算<tspan x="0" y="19">结果</tspan></text><rect x="230.5" y="530.5" width="53" height="53" stroke="#000000" stroke-width="1.33333" stroke-miterlimit="8" fill="#FFFFFF"/><text font-family="DengXian,DengXian_MSFontService,sans-serif" font-weight="400" font-size="16" transform="translate(240.777 552)">计算<tspan x="0" y="19">请求</tspan></text><path d="M283 555 386.193 555 386.193 557 283 557ZM384.859 552 392.859 556 384.859 560Z"/><path d="M9.45574e-07-1 104.363-0.999901 104.363 1.0001-9.45574e-07 1ZM103.03-3.9999 111.03 0.000104987 103.03 4.0001Z" transform="matrix(-1 0 0 1 395.03 610)"/><path d="M0-1 46.6267-1 46.6267 44.7747 45.6267 43.7747 129.03 43.7747 129.03 45.7747 44.6267 45.7747 44.6267 0 45.6267 1 0 1ZM127.697 40.7747 135.697 44.7747 127.697 48.7747Z" transform="matrix(-1 1.22465e-16 1.22465e-16 1 563.697 565)"/><text font-family="DengXian,DengXian_MSFontService,sans-serif" font-weight="400" font-size="24" transform="translate(536.01 558)">否</text><path d="M708 564 856.579 564 856.579 566 708 566ZM855.246 561 863.246 565 855.246 569Z"/><rect x="863.5" y="4.50005" width="359" height="699" stroke="#000000" stroke-width="1.33333" stroke-miterlimit="8" fill="#FFFFFF"/><text font-family="DengXian,DengXian_MSFontService,sans-serif" font-weight="400" font-size="24" transform="translate(934.639 361)">下一分块的计算单元</text><path d="M3.03632e-07-1 339.103-0.999897 339.103 1.0001-3.03632e-07 1ZM337.77-3.9999 345.77 0.000104987 337.77 4.0001Z" transform="matrix(-1 0 0 1 772.77 610)"/><rect x="490.5" y="591.5" width="53" height="53" stroke="#000000" stroke-width="1.33333" stroke-miterlimit="8" fill="#FFFFFF"/><text font-family="DengXian,DengXian_MSFontService,sans-serif" font-weight="400" font-size="16" transform="translate(500.087 614)">计算<tspan x="0" y="19">结果</tspan></text><rect x="773.5" y="530.5" width="53" height="53" stroke="#000000" stroke-width="1.33333" stroke-miterlimit="8" fill="#FFFFFF"/><text font-family="DengXian,DengXian_MSFontService,sans-serif" font-weight="400" font-size="16" transform="translate(783.374 552)">计算<tspan x="0" y="19">请求</tspan></text><rect x="773.5" y="583.5" width="53" height="53" stroke="#000000" stroke-width="1.33333" stroke-miterlimit="8" fill="#FFFFFF"/><text font-family="DengXian,DengXian_MSFontService,sans-serif" font-weight="400" font-size="16" transform="translate(783.374 606)">计算<tspan x="0" y="19">结果</tspan></text><path d="M2.8203e-06-1 30.5587-0.999914 30.5587 1.00009-2.8203e-06 1ZM29.2254-3.99992 37.2254 0.000104987 29.2254 4.00008Z" transform="matrix(-1 0 0 1 863.225 610)"/><text font-family="DengXian,DengXian_MSFontService,sans-serif" font-weight="400" font-size="24" transform="translate(718.365 553)">是<tspan fill="#C00000" font-size="16" x="31.8128" y="-67">创建计算请求</tspan><tspan fill="#C00000" font-size="16" x="31.8128" y="-48">发往下一分块</tspan><tspan fill="#C00000" font-size="16" x="31.8128" y="-29">计算单元</tspan><tspan fill="#C00000" font-size="16" x="31.3354" y="98">转发下一分块</tspan><tspan fill="#C00000" font-size="16" x="31.3354" y="117">计算单元的计</tspan><tspan fill="#C00000" font-size="16" x="31.3354" y="136">算结果</tspan><tspan fill="#C00000" font-size="16" x="-310.351" y="85">返回计算结果</tspan></text></g></svg>